PathFileType	4	(X/Y/Z)	C:\Users\WrightLab\Desktop\Jo\P3_3.trc
DataRate	CameraRate	NumFrames	NumMarkers	Units	OrigDataRate	OrigDataStartFrame	OrigNumFrames
100.00	100.00	       22	19	mm	100.00	456	       729
Frame#	Time	Headset_Front			Headset_Back			Headset_Left			Headset_Right			Left_Shoulder			Right_Shoulder			Sternum			C7			Left Elbow			Right Elbow			Left Wrist			Right Wrist			Left ASIS			Right ASIS			S2			Left Knee			Right Knee			Left Ankle			Right Ankle			
		X1	Y1	Z1	X2	Y2	Z2	X3	Y3	Z3	X4	Y4	Z4	X5	Y5	Z5	X6	Y6	Z6	X7	Y7	Z7	X8	Y8	Z8	X9	Y9	Z9	X10	Y10	Z10	X11	Y11	Z11	X12	Y12	Z12	X13	Y13	Z13	X14	Y14	Z14	X15	Y15	Z15	X16	Y16	Z16	X17	Y17	Z17	X18	Y18	Z18	X19	Y19	Z19	

456	4.550	-627.82971	1513.45923	-1092.86340	-587.23352	1592.25781	-953.60736							-744.45453	1300.13782	-1023.74609	-423.92575	1312.36877	-873.87958	-532.06500	1182.30774	-1063.38672	-598.31427	1357.22607	-904.78088	-802.63702	965.20593	-1022.74731	-337.33432	977.30194	-807.31091	-755.61163	782.43805	-1116.00781	-259.02966	804.68982	-939.38098				-625.30817	818.18158	-1069.19250	-606.71405	909.20306	-829.77466				-449.22699	404.53796	-873.16180				-502.10721	91.78215	-752.54211	
457	4.560	-627.26343	1512.96594	-1100.56860	-587.59729	1590.71960	-960.61578							-742.92133	1298.36523	-1032.45227	-423.28732	1311.17261	-880.81720	-530.44824	1181.62439	-1072.21118	-598.75488	1356.04944	-913.16254	-801.47552	963.37640	-1032.20825	-337.52173	975.56317	-814.65063	-754.37506	779.78876	-1124.32483	-257.71426	803.82611	-948.10175	-391.57181	834.06366	-975.90979	-622.69189	816.13092	-1078.94250	-605.27454	907.05463	-838.66705	-447.45044	1321.89661	-880.28357	-448.22556	403.50708	-878.24207				-500.70984	93.28936	-753.37598	
458	4.570	-626.76855	1512.26257	-1108.20093	-587.87756	1589.52771	-967.48212							-742.57080	1296.45972	-1041.61133	-423.59329	1309.83801	-887.61536	-528.82916	1180.70569	-1081.78174	-598.42041	1354.53235	-921.72614	-799.73724	961.51483	-1042.20703	-338.33807	974.03674	-823.90515	-752.94116	777.54816	-1133.14380	-256.49753	803.11401	-955.59753	-389.38544	831.67102	-982.37329	-620.00470	814.63184	-1088.94568	-604.91162	906.26025	-849.23529	-446.26318	1321.91101	-888.46320	-446.79276	402.63235	-883.35962				-500.55457	93.87659	-754.13202	
459	4.580	-626.17792	1511.67151	-1116.08337	-588.39807	1588.14648	-974.38434							-741.50464	1294.27979	-1052.09485	-423.69528	1309.12622	-898.29053	-527.18610	1179.91504	-1090.47937	-598.21436	1352.95056	-931.15100	-798.62366	960.14081	-1052.77710	-337.67520	972.92780	-832.03961	-751.63342	774.67291	-1141.21082	-255.10709	802.43762	-962.87708				-617.62964	812.91754	-1098.60095	-604.58423	904.91803	-859.38831	-445.09409	1320.81104	-895.53040	-445.97314	401.68341	-889.31561				-500.84656	94.32735	-755.62677	
460	4.590	-625.54791	1510.93347	-1123.69788	-589.07526	1586.40442	-981.44293							-740.87341	1293.66577	-1061.48291	-422.85834	1308.24194	-902.51923	-525.63916	1178.61487	-1099.13367	-597.35938	1350.71875	-939.51337	-797.50165	957.82117	-1062.30188	-336.59821	972.30322	-839.07825	-750.42126	772.38605	-1150.35181	-253.73611	801.97858	-971.12225	-385.87994	827.97968	-998.63092	-615.36194	811.61517	-1108.14026	-603.79327	902.90472	-868.99768				-444.39038	401.01273	-895.52606				-500.63843	95.12390	-756.84753	
461	4.600	-624.80231	1510.45435	-1131.86938	-589.75360	1584.85913	-988.70612							-738.91614	1290.82141	-1071.83972	-423.97250	1308.09277	-909.99207	-523.93207	1177.94934	-1108.02783	-597.92896	1349.14465	-948.61066	-795.93384	955.42041	-1071.84766	-338.11960	970.76581	-847.28882	-748.97009	769.91333	-1159.26953	-252.90221	801.81219	-979.33539				-613.58771	810.30994	-1118.30933	-602.62921	901.29095	-879.10455				-443.40491	399.45776	-902.37408				-499.60355	96.53469	-758.25055	
462	4.610	-623.98578	1510.16003	-1140.07617	-590.57416	1583.17358	-995.01758							-737.58899	1288.54187	-1081.28015	-423.89651	1305.62744	-918.50928	-522.56708	1176.67566	-1116.99292	-597.62573	1348.09705	-957.36218	-795.25330	954.05127	-1082.53308	-337.79465	969.84808	-854.77289	-747.71155	767.23279	-1167.90442	-251.53944	801.65332	-987.86023	-382.79855	825.92719	-1019.94513	-611.81946	809.33301	-1128.49512	-601.05225	900.77362	-889.30627				-442.29675	398.03445	-908.58691				-499.51202	98.29701	-759.30316	
463	4.620	-623.09503	1509.95447	-1148.24756	-591.30627	1581.62073	-1002.39996							-736.94330	1287.53491	-1092.34949	-423.94962	1304.95068	-926.99420	-520.98779	1176.09387	-1125.90149	-598.31519	1346.56897	-965.79156	-793.37427	951.63055	-1093.04529	-338.82761	968.45721	-862.45605	-746.22296	764.99170	-1177.08179	-250.56705	800.91632	-995.17645				-610.30127	808.70184	-1139.16455	-599.82495	899.22119	-899.20575				-441.43561	396.09528	-917.27362				-499.52121	99.81914	-762.17810	
464	4.630	-622.07721	1510.14868	-1156.52405	-591.95636	1580.72290	-1009.50891							-736.04584	1285.80505	-1101.79529	-423.83298	1304.23132	-935.00311	-519.01526	1175.52783	-1136.70874	-598.06091	1345.42273	-975.17535	-792.23181	950.84552	-1104.16418	-339.27951	968.10028	-869.18030	-744.80035	762.67914	-1186.00696	-249.69389	800.10925	-1001.96222	-380.14444	822.80176	-1038.21667	-608.71436	808.03125	-1148.75720	-597.91266	897.18225	-907.75647				-439.07288	395.20776	-926.17645				-499.46103	101.44892	-764.27545	
465	4.640	-620.92188	1510.44421	-1164.26477	-592.74017	1579.95850	-1016.57349							-734.35962	1284.72253	-1112.07007	-423.50333	1303.61829	-943.22650	-518.58313	1174.86194	-1144.00439	-598.00623	1344.87109	-983.69641	-791.28174	949.49799	-1114.66089	-340.16150	967.44250	-878.20984	-743.10046	760.92004	-1195.42688	-248.57997	799.77631	-1008.41626				-607.47809	807.82581	-1159.49939	-597.79858	897.16309	-917.71545				-437.77130	393.81415	-936.21100				-497.62927	104.09698	-767.74335	
466	4.650	-619.53595	1511.51941	-1173.22815	-593.07611	1579.50061	-1023.98560							-734.53015	1283.64490	-1122.33826	-423.87952	1303.87903	-951.02667	-517.32697	1175.04492	-1152.81641	-599.03546	1345.09521	-992.65283	-790.29480	949.08746	-1126.27893	-339.51523	967.32031	-884.76306	-741.45300	759.51447	-1204.89587	-247.47751	799.48157	-1016.49811	-378.03918	820.80060	-1056.59241	-606.23444	807.56281	-1169.12561	-595.41730	896.75488	-927.13995				-435.55850	392.66068	-946.77295				-498.81754	106.68130	-770.66052	
467	4.660	-618.21515	1512.51721	-1181.54321										-732.86938	1284.12073	-1133.21277	-424.22800	1303.83496	-958.81586	-516.57819	1175.11951	-1162.44104	-597.92383	1345.44006	-1002.60345	-788.50751	947.75952	-1136.37244	-338.01157	967.87317	-892.04785	-739.59796	758.43823	-1214.24011	-247.10419	799.86810	-1022.35828				-604.87659	808.20129	-1179.11499	-594.17395	896.53351	-936.65778				-432.64444	391.01508	-959.12494				-496.73331	111.50547	-775.56226	
468	4.670	-616.68140	1513.91931	-1190.02832										-732.86566	1283.65991	-1142.59021	-424.06497	1304.59338	-967.29419	-515.37042	1175.81421	-1170.99988	-598.67358	1345.10315	-1011.44781	-787.43390	948.12683	-1147.94446	-340.64560	967.45581	-900.79999	-737.79974	758.37677	-1224.37109	-246.89516	799.79932	-1029.25989				-603.66455	809.09503	-1188.52563	-592.18903	897.34277	-946.00507				-429.24435	389.69287	-972.66632				-497.29916	114.51196	-781.77979	
469	4.680	-615.03839	1515.94092	-1198.94983	-375.34518	820.43439	-1083.06787							-731.34601	1284.63892	-1153.29004	-424.45807	1305.84167	-975.65179	-514.06989	1177.16235	-1179.75232	-598.98828	1346.24390	-1020.10693	-785.89392	948.35565	-1158.42273	-340.83887	968.23663	-908.91040	-735.77142	758.96124	-1234.04260	-246.76457	800.31598	-1034.88354				-602.46198	810.22009	-1197.58215	-589.81903	898.27222	-954.78076				-425.20825	388.22943	-987.60956				-495.73975	119.90543	-787.69073	
470	4.690	-613.47266	1517.28149	-1206.56079										-730.86713	1284.98669	-1162.51160	-425.11584	1307.67480	-983.80402	-512.81128	1178.41919	-1188.20276	-598.87030	1347.81799	-1029.81628	-784.42987	949.32733	-1169.44653	-340.65454	970.00928	-915.49744	-734.08563	759.66742	-1244.04175	-246.18239	800.60425	-1040.66724				-600.99591	811.56940	-1205.75317	-588.91125	898.39514	-962.22510				-420.92587	386.35458	-1002.29962				-495.48001	125.46440	-795.63647	
471	4.700	-611.89325	1519.08948	-1215.02698										-728.86700	1286.46753	-1172.85938	-425.23428	1308.94238	-991.37805	-511.58911	1179.63599	-1196.74438	-599.08405	1348.32007	-1038.39294	-783.19446	951.14270	-1179.69385	-342.74393	971.05670	-923.52460	-732.37079	760.73779	-1253.95496	-246.62062	802.12158	-1048.75110				-599.44604	814.13898	-1215.10388	-586.74231	899.34863	-971.35889				-414.99228	385.76416	-1018.24731				-494.13855	130.67027	-804.11804	
472	4.710	-610.22620	1521.06458	-1223.58521	-372.77679	824.45959	-1109.64807							-728.47900	1288.13770	-1183.00403	-425.73236	1310.91956	-999.61902	-510.15927	1180.88403	-1204.79675	-597.60834	1348.86230	-1047.73682	-781.92529	952.00311	-1189.68738	-343.19110	974.57031	-931.69043	-730.73987	762.16833	-1264.45166	-246.79233	803.35663	-1052.60437				-597.96625	816.05951	-1223.36377	-585.76575	901.87384	-979.56702				-411.14413	383.33466	-1037.03662				-492.79770	137.44994	-813.48676	
473	4.720	-608.67694	1522.81738	-1231.40454										-726.34167	1289.43262	-1192.80273	-426.11804	1312.60120	-1007.06677	-508.59140	1182.53052	-1213.33801	-598.72137	1350.43884	-1056.87573	-780.88245	953.76367	-1199.86987	-343.74487	975.34692	-938.68750	-728.83691	764.18964	-1274.80139	-246.96758	803.81232	-1057.35950				-596.45508	818.81921	-1232.92529	-584.94208	902.30023	-987.58374				-404.57849	383.25293	-1052.45044				-489.47052	145.13402	-824.62653	
474	4.730	-607.08850	1524.45447	-1239.33801										-725.07666	1290.94958	-1202.38074	-425.90567	1314.43384	-1014.34277	-506.75580	1184.25830	-1221.33508	-597.70758	1351.13647	-1065.36646	-779.82758	955.57587	-1209.97107	-344.95490	977.42377	-945.40222	-727.11597	766.14490	-1285.43347	-247.15457	805.75049	-1065.22266				-594.59003	822.09674	-1242.77905	-583.82251	903.78088	-994.42450				-398.88889	384.18863	-1070.23389				-488.71808	152.48798	-834.17157	
475	4.740	-605.54968	1525.91248	-1247.13550										-723.06744	1291.54700	-1212.22363	-425.83514	1316.33398	-1021.77319	-504.94464	1185.44226	-1229.07922	-596.89764	1352.03235	-1074.35449	-778.50793	957.42163	-1220.37622	-346.18591	979.29236	-952.09167	-725.63318	767.82617	-1296.28735	-247.27432	806.67108	-1070.67529				-592.84131	824.36420	-1250.90759	-583.24286	905.47321	-1002.39783				-395.07391	384.22482	-1085.43408				-486.81091	160.47018	-845.60754	
476	4.750	-603.89606	1527.64771	-1255.44788										-720.86523	1293.20032	-1221.88037	-425.69241	1317.85657	-1028.10693	-502.77960	1186.98889	-1237.07056	-596.65143	1353.34119	-1082.84351	-778.04517	958.98529	-1230.53650	-345.89703	981.55334	-958.56946	-724.14960	769.46527	-1307.24316	-247.20364	807.39709	-1075.48291							-582.87567	906.14282	-1010.44794				-389.79977	386.33682	-1100.84460				-484.64926	168.17789	-857.04846	
477	4.760													-718.82819	1294.32800	-1231.64075	-425.28119	1319.56165	-1035.98108	-500.40546	1188.15576	-1243.98328	-596.09192	1354.47559	-1090.95007	-776.21985	960.14288	-1240.65320	-345.89789	982.77289	-963.02100	-722.46808	771.26166	-1318.17615	-247.26575	808.56885	-1081.71680							-582.67395	906.87579	-1017.77155				-383.88303	387.91095	-1117.36963				-483.73340	176.17128	-869.39276	
